<svg xmlns="http://www.w3.org/2000/svg" xmlns:xlink="http://www.w3.org/1999/xlink" width="120" height="120" viewBox="0 0 120 120"><defs><linearGradient id="a" x1="59.75" y1="458" x2="59.75" y2="391.88" gradientTransform="matrix(-1, 0, 0, 1, 120, -348)" gradientUnits="userSpaceOnUse"><stop offset="0.21" stop-color="#ffff06"/><stop offset="0.58" stop-color="#b6ff1f" stop-opacity="0.8"/></linearGradient><linearGradient id="b" x1="31.52" y1="361.71" x2="-19.32" y2="449.77" gradientTransform="matrix(-1, 0, 0, 1, 84.13, -348)" gradientUnits="userSpaceOnUse"><stop offset="0.5" stop-color="#00b433"/><stop offset="0.85" stop-color="#f5ff1f" stop-opacity="0.3"/></linearGradient><linearGradient id="c" x1="16.79" y1="361.73" x2="67.61" y2="449.75" gradientTransform="matrix(-1, 0, 0, 1, 84.13, -348)" gradientUnits="userSpaceOnUse"><stop offset="0.46" stop-color="#00b433"/><stop offset="0.85" stop-color="#f5ff1f" stop-opacity="0.3"/></linearGradient></defs><ellipse cx="60.25" cy="76.91" rx="19.58" ry="33.09" fill="url(#a)"/><path d="M65.58,12.71C93,28.28,49.07,101.62,13.16,99.48-1.25,98.67,36.69-3.74,65.58,12.71Z" fill="#00b433" fill-rule="evenodd"/><path d="M106.85,99.48c-36,2-79.82-71.2-52.51-86.77C83.23-3.74,121.25,98.67,106.85,99.48Z" fill="#00b433" fill-rule="evenodd"/><path d="M106.85,99.48c-36,2-79.82-71.2-52.51-86.77C83.23-3.74,121.25,98.67,106.85,99.48Z" stroke="#d4ff15" stroke-miterlimit="10" stroke-width="0.5" fill-rule="evenodd" fill="url(#b)"/><path d="M65.58,12.71C93,28.28,49.07,101.62,13.16,99.48-1.25,98.67,36.69-3.74,65.58,12.71Z" stroke="#baff00" stroke-miterlimit="10" stroke-width="0.5" fill-rule="evenodd" fill="url(#c)"/><ellipse cx="67.1" cy="13.13" rx="2.72" ry="3.13"/><ellipse cx="52.61" cy="13.13" rx="2.72" ry="3.13"/></svg>